<mxfile host="www.draw.io" modified="2019-11-10T22:31:08.700Z" agent="Mozilla/5.0 (Macintosh; Intel Mac OS X 10_14_6) AppleWebKit/605.1.15 (KHTML, like Gecko) Version/13.0.1 Safari/605.1.15" etag="XW6fZM574sbfKMMs3aCT" version="12.2.3" type="github" pages="1">
  <diagram id="gwtcu8Rf-SV7EkaIj40w" name="Page-1">
    <mxGraphModel dx="590" dy="798" grid="1" gridSize="10" guides="1" tooltips="1" connect="1" arrows="1" fold="1" page="1" pageScale="1" pageWidth="1654" pageHeight="2336" math="0" shadow="0">
      <root>
        <mxCell id="0"/>
        <mxCell id="1" parent="0"/>
        <mxCell id="ZbMX1jnrtSuU7y5GEeRf-9" style="edgeStyle=orthogonalEdgeStyle;rounded=0;orthogonalLoop=1;jettySize=auto;html=1;entryX=0.5;entryY=0;entryDx=0;entryDy=0;" edge="1" parent="1" source="sW6JMHkc4esJggJYWJq9-1" target="ZbMX1jnrtSuU7y5GEeRf-8">
          <mxGeometry relative="1" as="geometry"/>
        </mxCell>
        <mxCell id="sW6JMHkc4esJggJYWJq9-1" value="Habilidades en Física y Matemáticas" style="rounded=1;whiteSpace=wrap;html=1;" parent="1" vertex="1">
          <mxGeometry x="340" y="440" width="120" height="60" as="geometry"/>
        </mxCell>
        <mxCell id="ZbMX1jnrtSuU7y5GEeRf-14" style="edgeStyle=orthogonalEdgeStyle;rounded=0;orthogonalLoop=1;jettySize=auto;html=1;entryX=0.5;entryY=0;entryDx=0;entryDy=0;" edge="1" parent="1" source="sW6JMHkc4esJggJYWJq9-2" target="ZbMX1jnrtSuU7y5GEeRf-12">
          <mxGeometry relative="1" as="geometry"/>
        </mxCell>
        <mxCell id="sW6JMHkc4esJggJYWJq9-2" value="Competencias disciplinarias" style="rounded=1;whiteSpace=wrap;html=1;" parent="1" vertex="1">
          <mxGeometry x="240" y="610" width="100" height="40" as="geometry"/>
        </mxCell>
        <mxCell id="ZbMX1jnrtSuU7y5GEeRf-29" style="edgeStyle=orthogonalEdgeStyle;rounded=0;orthogonalLoop=1;jettySize=auto;html=1;entryX=0.5;entryY=0;entryDx=0;entryDy=0;exitX=0;exitY=0.5;exitDx=0;exitDy=0;" edge="1" parent="1" source="sW6JMHkc4esJggJYWJq9-8" target="ZbMX1jnrtSuU7y5GEeRf-24">
          <mxGeometry relative="1" as="geometry"/>
        </mxCell>
        <mxCell id="sW6JMHkc4esJggJYWJq9-8" value="Nuevas Habilidades" style="rounded=1;whiteSpace=wrap;html=1;" parent="1" vertex="1">
          <mxGeometry x="290" y="760" width="80" height="40" as="geometry"/>
        </mxCell>
        <mxCell id="ZbMX1jnrtSuU7y5GEeRf-22" style="edgeStyle=orthogonalEdgeStyle;rounded=0;orthogonalLoop=1;jettySize=auto;html=1;entryX=0.5;entryY=0;entryDx=0;entryDy=0;" edge="1" parent="1" source="sW6JMHkc4esJggJYWJq9-6" target="ZbMX1jnrtSuU7y5GEeRf-17">
          <mxGeometry relative="1" as="geometry"/>
        </mxCell>
        <mxCell id="sW6JMHkc4esJggJYWJq9-6" value="Tradicionales" style="rounded=1;whiteSpace=wrap;html=1;" parent="1" vertex="1">
          <mxGeometry x="110" y="760" width="90" height="40" as="geometry"/>
        </mxCell>
        <mxCell id="sW6JMHkc4esJggJYWJq9-5" value="Competencias disciplinarias" style="rounded=1;whiteSpace=wrap;html=1;" parent="1" vertex="1">
          <mxGeometry x="420" y="610" width="120" height="60" as="geometry"/>
        </mxCell>
        <mxCell id="sW6JMHkc4esJggJYWJq9-10" value="Universidades&lt;br&gt;(Pregrado, Posgrado)" style="rounded=1;whiteSpace=wrap;html=1;" parent="1" vertex="1">
          <mxGeometry x="25" y="875" width="130" height="40" as="geometry"/>
        </mxCell>
        <mxCell id="sW6JMHkc4esJggJYWJq9-11" value="Computacionales" style="rounded=1;whiteSpace=wrap;html=1;" parent="1" vertex="1">
          <mxGeometry x="277.5" y="890" width="105" height="30" as="geometry"/>
        </mxCell>
        <mxCell id="sW6JMHkc4esJggJYWJq9-12" value="Técnicos" style="rounded=1;whiteSpace=wrap;html=1;" parent="1" vertex="1">
          <mxGeometry x="184" y="890" width="65" height="30" as="geometry"/>
        </mxCell>
        <mxCell id="sW6JMHkc4esJggJYWJq9-13" value="Multidisciplinares" style="rounded=1;whiteSpace=wrap;html=1;" parent="1" vertex="1">
          <mxGeometry x="210" y="935" width="110" height="30" as="geometry"/>
        </mxCell>
        <mxCell id="ZbMX1jnrtSuU7y5GEeRf-1" value="Cursos Online" style="rounded=1;whiteSpace=wrap;html=1;" vertex="1" parent="1">
          <mxGeometry x="565" y="890" width="65" height="30" as="geometry"/>
        </mxCell>
        <mxCell id="ZbMX1jnrtSuU7y5GEeRf-2" value="Cursos &amp;nbsp;extra en la Universidad" style="rounded=1;whiteSpace=wrap;html=1;" vertex="1" parent="1">
          <mxGeometry x="660" y="935" width="100" height="40" as="geometry"/>
        </mxCell>
        <mxCell id="ZbMX1jnrtSuU7y5GEeRf-3" value="Grafos" style="rounded=1;whiteSpace=wrap;html=1;" vertex="1" parent="1">
          <mxGeometry x="690" y="1010" width="52" height="30" as="geometry"/>
        </mxCell>
        <mxCell id="ZbMX1jnrtSuU7y5GEeRf-4" value="Alineados con el futuro de la Profesión" style="rounded=1;whiteSpace=wrap;html=1;" vertex="1" parent="1">
          <mxGeometry x="514.5" y="800" width="83" height="60" as="geometry"/>
        </mxCell>
        <mxCell id="ZbMX1jnrtSuU7y5GEeRf-5" value="Cambios en el Currículo" style="rounded=1;whiteSpace=wrap;html=1;" vertex="1" parent="1">
          <mxGeometry x="648.5" y="730" width="83" height="60" as="geometry"/>
        </mxCell>
        <mxCell id="ZbMX1jnrtSuU7y5GEeRf-6" value="Cursos en Computación" style="rounded=1;whiteSpace=wrap;html=1;" vertex="1" parent="1">
          <mxGeometry x="659" y="810" width="83" height="60" as="geometry"/>
        </mxCell>
        <mxCell id="ZbMX1jnrtSuU7y5GEeRf-7" value="Cultura Digital" style="rounded=1;whiteSpace=wrap;html=1;" vertex="1" parent="1">
          <mxGeometry x="540" y="720" width="83" height="60" as="geometry"/>
        </mxCell>
        <mxCell id="ZbMX1jnrtSuU7y5GEeRf-10" style="edgeStyle=orthogonalEdgeStyle;rounded=0;orthogonalLoop=1;jettySize=auto;html=1;entryX=0.5;entryY=0;entryDx=0;entryDy=0;exitX=0.5;exitY=1;exitDx=0;exitDy=0;" edge="1" parent="1" source="ZbMX1jnrtSuU7y5GEeRf-8" target="sW6JMHkc4esJggJYWJq9-2">
          <mxGeometry relative="1" as="geometry"/>
        </mxCell>
        <mxCell id="ZbMX1jnrtSuU7y5GEeRf-11" style="edgeStyle=orthogonalEdgeStyle;rounded=0;orthogonalLoop=1;jettySize=auto;html=1;entryX=0.5;entryY=0;entryDx=0;entryDy=0;" edge="1" parent="1" source="ZbMX1jnrtSuU7y5GEeRf-8" target="sW6JMHkc4esJggJYWJq9-5">
          <mxGeometry relative="1" as="geometry"/>
        </mxCell>
        <mxCell id="ZbMX1jnrtSuU7y5GEeRf-8" value="Se componen de" style="text;html=1;strokeColor=none;fillColor=none;align=center;verticalAlign=middle;whiteSpace=wrap;rounded=0;" vertex="1" parent="1">
          <mxGeometry x="357.5" y="520" width="85" height="50" as="geometry"/>
        </mxCell>
        <mxCell id="ZbMX1jnrtSuU7y5GEeRf-15" style="edgeStyle=orthogonalEdgeStyle;rounded=0;orthogonalLoop=1;jettySize=auto;html=1;entryX=0.5;entryY=0;entryDx=0;entryDy=0;exitX=0.5;exitY=1;exitDx=0;exitDy=0;" edge="1" parent="1" source="ZbMX1jnrtSuU7y5GEeRf-12" target="sW6JMHkc4esJggJYWJq9-6">
          <mxGeometry relative="1" as="geometry"/>
        </mxCell>
        <mxCell id="ZbMX1jnrtSuU7y5GEeRf-16" style="edgeStyle=orthogonalEdgeStyle;rounded=0;orthogonalLoop=1;jettySize=auto;html=1;entryX=0.5;entryY=0;entryDx=0;entryDy=0;" edge="1" parent="1" source="ZbMX1jnrtSuU7y5GEeRf-12" target="sW6JMHkc4esJggJYWJq9-8">
          <mxGeometry relative="1" as="geometry"/>
        </mxCell>
        <mxCell id="ZbMX1jnrtSuU7y5GEeRf-12" value="Se dividen en" style="text;html=1;strokeColor=none;fillColor=none;align=center;verticalAlign=middle;whiteSpace=wrap;rounded=0;" vertex="1" parent="1">
          <mxGeometry x="230" y="675" width="70" height="45" as="geometry"/>
        </mxCell>
        <mxCell id="ZbMX1jnrtSuU7y5GEeRf-23" style="edgeStyle=orthogonalEdgeStyle;rounded=0;orthogonalLoop=1;jettySize=auto;html=1;entryX=0.5;entryY=0;entryDx=0;entryDy=0;" edge="1" parent="1" source="ZbMX1jnrtSuU7y5GEeRf-17" target="sW6JMHkc4esJggJYWJq9-10">
          <mxGeometry relative="1" as="geometry"/>
        </mxCell>
        <mxCell id="ZbMX1jnrtSuU7y5GEeRf-17" value="Se certifican" style="text;html=1;strokeColor=none;fillColor=none;align=center;verticalAlign=middle;whiteSpace=wrap;rounded=0;" vertex="1" parent="1">
          <mxGeometry x="20" y="807.5" width="70" height="25" as="geometry"/>
        </mxCell>
        <mxCell id="ZbMX1jnrtSuU7y5GEeRf-30" style="edgeStyle=orthogonalEdgeStyle;rounded=0;orthogonalLoop=1;jettySize=auto;html=1;entryX=0.5;entryY=0;entryDx=0;entryDy=0;" edge="1" parent="1" source="ZbMX1jnrtSuU7y5GEeRf-24" target="sW6JMHkc4esJggJYWJq9-11">
          <mxGeometry relative="1" as="geometry"/>
        </mxCell>
        <mxCell id="ZbMX1jnrtSuU7y5GEeRf-31" style="edgeStyle=orthogonalEdgeStyle;rounded=0;orthogonalLoop=1;jettySize=auto;html=1;entryX=0.5;entryY=0;entryDx=0;entryDy=0;" edge="1" parent="1" source="ZbMX1jnrtSuU7y5GEeRf-24" target="sW6JMHkc4esJggJYWJq9-12">
          <mxGeometry relative="1" as="geometry"/>
        </mxCell>
        <mxCell id="ZbMX1jnrtSuU7y5GEeRf-32" style="edgeStyle=orthogonalEdgeStyle;rounded=0;orthogonalLoop=1;jettySize=auto;html=1;entryX=0.5;entryY=0;entryDx=0;entryDy=0;" edge="1" parent="1" source="ZbMX1jnrtSuU7y5GEeRf-24" target="sW6JMHkc4esJggJYWJq9-13">
          <mxGeometry relative="1" as="geometry"/>
        </mxCell>
        <mxCell id="ZbMX1jnrtSuU7y5GEeRf-24" value="Las cuales son" style="text;html=1;strokeColor=none;fillColor=none;align=center;verticalAlign=middle;whiteSpace=wrap;rounded=0;" vertex="1" parent="1">
          <mxGeometry x="230" y="822.5" width="70" height="25" as="geometry"/>
        </mxCell>
        <mxCell id="ZbMX1jnrtSuU7y5GEeRf-25" value="Se certifican" style="text;html=1;strokeColor=none;fillColor=none;align=center;verticalAlign=middle;whiteSpace=wrap;rounded=0;" vertex="1" parent="1">
          <mxGeometry x="490" y="990" width="70" height="25" as="geometry"/>
        </mxCell>
        <mxCell id="ZbMX1jnrtSuU7y5GEeRf-26" value="Se certifican" style="text;html=1;strokeColor=none;fillColor=none;align=center;verticalAlign=middle;whiteSpace=wrap;rounded=0;" vertex="1" parent="1">
          <mxGeometry x="570" y="1050" width="70" height="25" as="geometry"/>
        </mxCell>
      </root>
    </mxGraphModel>
  </diagram>
</mxfile>
